<svg width="105" height="50" viewBox="0 0 105 50" fill="none" xmlns="http://www.w3.org/2000/svg">
<path d="M59.0085 27.7873V30.6962C57.3413 33.1291 55.0173 34.3984 51.9356 34.3984C49.4095 34.3984 47.3381 33.6051 45.8225 31.9655C44.2564 30.3789 43.4985 28.2633 43.4985 25.6189C43.4985 23.1331 44.2058 21.0705 45.6204 19.4838C47.035 17.8972 48.9043 17.1038 51.1272 17.1038C52.2892 17.1038 53.3501 17.3154 54.3606 17.7914C55.371 18.2145 56.1793 18.902 56.9371 19.7483C57.6444 20.5945 58.2001 21.5994 58.5538 22.71C58.9074 23.8207 59.059 25.2487 59.059 26.8353H51.3798C51.6324 27.6815 52.1376 28.3691 52.7439 28.8451C53.4007 29.3211 54.1079 29.5855 54.9668 29.5855C56.634 29.5855 57.9475 29.0038 59.0085 27.7873ZM43.9027 21.8109V17.474H29.3022V21.8109H32.8386V34.1339H40.3157V21.8109H43.9027ZM28.9485 33.2348C26.7256 34.2926 24.4016 34.5042 22.3808 34.3984C18.0865 34.1868 15.1058 31.278 14.7016 26.7295C14.7016 26.4651 14.6511 26.2007 14.6511 25.9362C14.6511 25.8833 14.6511 25.8304 14.6511 25.7776C14.6511 25.7247 14.6511 25.6718 14.6511 25.6189C14.6511 25.3544 14.6511 25.09 14.7016 24.8256C14.9037 22.71 15.6615 20.9647 16.975 19.5896C18.5412 18.0029 20.562 17.1567 23.0881 17.1567C25.1089 17.2625 26.9782 17.5798 28.9485 18.6905V23.3976C27.5844 22.7629 26.2709 22.3927 25.0079 22.3927C24.1995 22.3927 23.3407 22.6571 22.7344 23.186C21.4714 24.3496 21.6735 26.2007 22.987 27.1527C24.0985 27.946 25.8162 27.8402 27.0287 27.6287C27.635 27.5229 28.2917 27.3113 28.9485 26.994V33.2348ZM73.2049 21.8109V17.474H58.6043V21.8109H62.1408V34.1339H69.6179V21.8109H73.2049ZM0 32.6002C2.22292 33.9753 4.54689 34.4513 6.56773 34.3984C10.862 34.1868 13.8427 31.278 14.2469 26.7295C14.2469 26.4651 14.2974 26.2007 14.2974 25.9362C14.2974 25.8833 14.2974 25.8304 14.2974 25.7776C14.2974 25.7247 14.2974 25.6718 14.2974 25.6189C14.2974 25.3544 14.2974 25.09 14.2469 24.8256C14.0448 22.71 13.287 20.9647 11.9735 19.5896C10.4073 18.0029 8.38648 17.1567 5.86043 17.1567C3.83959 17.2625 2.02084 17.5798 0 18.7963V22.8687C1.36407 22.1282 2.67761 21.9696 3.94063 21.9167C5.15314 21.9167 6.41616 22.2869 6.82033 23.6091H2.12188C2.12188 24.2967 2.12188 25.6718 2.12188 26.3593H6.87085C6.92137 27.3642 5.55731 28.1575 4.0922 28.1575C2.72813 28.2104 1.41459 28.0518 0 27.3642V32.6002ZM50.8746 23.9793H54.4111C54.3605 23.1331 54.209 22.4985 53.8553 22.0225C53.5522 21.5465 53.0975 21.3349 52.5923 21.3349C52.1376 21.3349 51.7335 21.5465 51.3798 22.0225C51.0262 22.4985 50.8746 23.1331 50.8746 23.9793ZM81.7429 17.3683V34.1339H74.2658V18.0029C75.6804 18.6376 76.8424 18.902 78.4085 18.7963C79.8231 18.6905 80.8335 18.1616 81.7429 17.3683ZM97.556 25.3016L101.497 34.1339H94.07L91.4429 25.4073V34.1339H83.9658V11.1803H91.4429V25.3544L94.07 17.474H101.042L97.556 25.3016Z" fill="#586BFF"/>
<path fill-rule="evenodd" clip-rule="evenodd" d="M76.7919 0.602136C89.2705 -2.35962 101.648 5.89099 104.427 19.0602C105.488 23.9789 105.033 28.8446 103.416 33.2344H103.315C104.275 29.5322 104.376 25.5655 103.517 21.5989C100.688 8.42964 88.3106 0.179027 75.8825 3.14079C68.759 4.83322 63.2017 9.80475 60.221 16.2043H60.0694C62.646 8.6412 68.759 2.50612 76.7919 0.602136Z" fill="#F37186"/>
<path fill-rule="evenodd" clip-rule="evenodd" d="M78.0044 9.96342C80.0252 9.96342 81.6924 11.7087 81.6924 13.8772C81.6924 16.0456 80.0252 17.7909 78.0044 17.7909C75.9835 17.7909 74.3163 16.0456 74.3163 13.8772C74.3163 11.7087 75.9835 9.96342 78.0044 9.96342Z" fill="#F37186"/>
<path d="M100.335 36.9898H0V37.9947H100.335V36.9898Z" fill="#F37186"/>
<path d="M6.21409 48.043V42.86L3.89013 47.1968H3.43544L1.11147 42.86V47.9901H0.202096V40.9031H0.95991L3.63752 45.9275L6.31513 40.9031H7.07295V47.9901H6.21409V48.043Z" fill="#586BFF"/>
<path d="M13.6911 45.6628H9.69999C9.80103 46.6148 10.5083 47.2494 11.4682 47.2494C12.024 47.2494 12.5292 47.0379 12.8828 46.6148L13.388 47.2494C12.9333 47.8312 12.2766 48.1485 11.4682 48.1485C9.90207 48.1485 8.84113 46.985 8.84113 45.3983C8.84113 43.8117 9.90207 42.6481 11.3167 42.6481C12.7312 42.6481 13.7417 43.7588 13.7417 45.3983C13.6911 45.4512 13.6911 45.557 13.6911 45.6628ZM9.69999 44.9752H12.8323C12.7818 44.0232 12.125 43.3886 11.2661 43.3886C10.4073 43.3886 9.80103 44.0232 9.69999 44.9752Z" fill="#586BFF"/>
<path d="M20.3094 47.1437V49.2592H19.5011V47.9899H15.4089V49.2592H14.55V47.1437H14.8026C15.5099 47.0908 15.611 45.7686 15.712 44.4463L15.7625 42.6481H19.5516V47.1965H20.3094V47.1437ZM15.9141 47.1437H18.6422V43.4415H16.5204L16.4698 44.4992C16.4698 45.6628 16.3688 46.7206 15.9141 47.1437Z" fill="#586BFF"/>
<path d="M21.7746 42.6481H22.6839V46.5619L25.6647 42.6481H26.473V48.0428H25.5636V44.129L22.5829 48.0428H21.7746V42.6481Z" fill="#586BFF"/>
<path d="M33.748 47.1437V49.3121H32.8891V48.0428H28.4938V42.6481H29.4032V47.1966H32.0808V42.6481H32.9901V47.1966H33.748V47.1437Z" fill="#586BFF"/>
<path d="M35.2132 42.6481H36.1225V46.5619L39.1033 42.6481H39.9116V48.0428H39.0022V44.129L36.0215 48.0428H35.2132V42.6481Z" fill="#586BFF"/>
<path d="M41.9324 42.6481H42.8418V44.9223H45.6204V42.6481H46.4793V48.0428H45.5699V45.7686H42.7912V48.0428H41.9324V42.6481Z" fill="#586BFF"/>
<path d="M52.3903 44.7644V47.9906H51.5315V47.303C51.2283 47.779 50.6726 48.0964 49.9148 48.0964C48.8033 48.0964 48.096 47.4617 48.096 46.5097C48.096 45.6635 48.6012 44.923 50.0664 44.923H51.4809V44.7115C51.4809 43.8653 51.0263 43.3893 50.1674 43.3893C49.5611 43.3893 49.0054 43.6008 48.6012 43.9711L48.2476 43.2306C48.7528 42.8075 49.4601 42.5431 50.2684 42.5431C51.6325 42.596 52.3903 43.2835 52.3903 44.7644ZM51.5315 46.351V45.6106H50.1674C49.3085 45.6106 49.0559 45.9808 49.0559 46.4568C49.0559 46.9857 49.4601 47.3559 50.1169 47.3559C50.7736 47.3559 51.2789 46.9857 51.5315 46.351Z" fill="#586BFF"/>
<path d="M60.5747 45.77H59.5643V48.0442H58.6549V42.6496H59.5643V44.9238H60.5747L62.1408 42.6496H63.1007L61.2315 45.2411L63.2018 48.0442H62.1408L60.5747 45.77Z" fill="#586BFF"/>
<path d="M69.7695 45.3458C69.7695 46.9853 68.7085 48.096 67.2939 48.096C66.5866 48.096 65.9804 47.7787 65.5762 47.1969V50H64.6668V42.6485H65.5257V43.4947C65.9299 42.9129 66.5361 42.5956 67.2939 42.5956C68.7085 42.5956 69.7695 43.7063 69.7695 45.3458ZM68.8601 45.3458C68.8601 44.1823 68.1528 43.4418 67.1929 43.4418C66.2835 43.4418 65.5257 44.1823 65.5257 45.3458C65.5257 46.5093 66.233 47.2498 67.1929 47.2498C68.1528 47.2498 68.8601 46.4565 68.8601 45.3458Z" fill="#586BFF"/>
<path d="M75.3773 44.7644V47.9906H74.5185V47.303C74.2154 47.779 73.6596 48.0964 72.9018 48.0964C71.7904 48.0964 71.0831 47.4617 71.0831 46.5097C71.0831 45.6635 71.5883 44.923 73.0534 44.923H74.468V44.7115C74.468 43.8653 74.0133 43.3893 73.1544 43.3893C72.5482 43.3893 71.9924 43.6008 71.5883 43.971L71.2346 43.2306C71.7398 42.8075 72.4471 42.5431 73.2555 42.5431C74.6195 42.5959 75.3773 43.2835 75.3773 44.7644ZM74.468 46.351V45.6106H73.1039C72.245 45.6106 71.9924 45.9808 71.9924 46.4568C71.9924 46.9857 72.3966 47.3559 73.0534 47.3559C73.7102 47.3559 74.2659 46.9857 74.468 46.351Z" fill="#586BFF"/>
<path d="M76.994 45.3458C76.994 43.7591 78.0549 42.5956 79.5706 42.5956C80.4294 42.5956 81.1872 42.9658 81.5409 43.7591L80.8841 44.2351C80.581 43.7063 80.0758 43.4418 79.5706 43.4418C78.6107 43.4418 77.9034 44.1823 77.9034 45.3458C77.9034 46.5093 78.6107 47.2498 79.5706 47.2498C80.1263 47.2498 80.581 46.9853 80.8841 46.4565L81.5409 46.9325C81.1367 47.6729 80.4294 48.096 79.5706 48.096C78.1055 48.096 76.994 46.9325 76.994 45.3458Z" fill="#586BFF"/>
<path d="M82.7029 45.3458C82.7029 43.7591 83.7638 42.5956 85.229 42.5956C86.6941 42.5956 87.755 43.7591 87.755 45.3458C87.755 46.9325 86.6941 48.096 85.229 48.096C83.7638 48.096 82.7029 46.9325 82.7029 45.3458ZM86.8961 45.3458C86.8961 44.1823 86.1889 43.4418 85.229 43.4418C84.2691 43.4418 83.5618 44.1823 83.5618 45.3458C83.5618 46.5093 84.2691 47.2498 85.229 47.2498C86.1889 47.2498 86.8961 46.4565 86.8961 45.3458Z" fill="#586BFF"/>
<path d="M93.0597 43.4958H91.2915V48.0442H90.3821V43.4958H88.6139V42.6496H93.0597V43.4958Z" fill="#586BFF"/>
<path d="M98.6171 46.246C98.6171 47.4095 97.8592 48.0442 96.5457 48.0442H94.4743V42.6496H95.3837V44.4478H96.6973C97.9098 44.5007 98.6171 45.1353 98.6171 46.246ZM97.7077 46.1931C97.7077 45.5055 97.3035 45.1882 96.4952 45.1882H95.3837V47.3037H96.4952C97.253 47.3037 97.7077 46.9335 97.7077 46.1931ZM99.3244 42.6496H100.234V48.0442H99.3244V42.6496Z" fill="#586BFF"/>
</svg>
