<svg width="26" height="26" viewBox="0 0 26 26" fill="none" xmlns="http://www.w3.org/2000/svg">
<path d="M14.0163 6.38006C15.4162 6.61467 16.6878 7.27585 17.703 8.28894C18.7181 9.30203 19.3753 10.5711 19.6157 11.9681M14.23 1.7998C16.7199 2.22104 18.9906 3.39942 20.7966 5.19633C22.6025 6.99857 23.778 9.26469 24.2 11.7494M22.2552 21.6351C22.2552 21.6351 20.9034 22.9628 20.5721 23.352C20.0325 23.9279 19.3967 24.1998 18.5632 24.1998C18.483 24.1998 18.3975 24.1998 18.3174 24.1945C16.7305 24.0932 15.2559 23.4746 14.1499 22.9468C11.1257 21.4858 8.47027 19.4116 6.26362 16.7829C4.44167 14.5914 3.22347 12.5652 2.41668 10.3898C1.91978 9.06207 1.73812 8.02765 1.81826 7.05188C1.87169 6.42803 2.11213 5.91082 2.55559 5.46826L4.37755 3.65003C4.63936 3.40475 4.91719 3.27145 5.18968 3.27145C5.52629 3.27145 5.79878 3.47407 5.96976 3.6447C5.9751 3.65003 5.98044 3.65536 5.98579 3.66069C6.31171 3.96462 6.6216 4.27921 6.94752 4.61513C7.11315 4.78576 7.28413 4.95638 7.45511 5.13234L8.91374 6.58799C9.4801 7.15319 9.4801 7.67574 8.91374 8.24093C8.75879 8.39556 8.60919 8.55019 8.45424 8.69949C8.00543 9.15805 8.358 8.8062 7.89316 9.2221C7.88247 9.23277 7.87179 9.2381 7.86644 9.24876C7.40695 9.70732 7.49244 10.1552 7.58861 10.4591C7.59395 10.4751 7.5993 10.4911 7.60464 10.5071C7.98399 11.4242 8.51829 12.288 9.33042 13.3171L9.33576 13.3225C10.8104 15.1354 12.3652 16.5484 14.0803 17.6308C14.2994 17.7694 14.5238 17.8814 14.7375 17.988C14.9299 18.084 15.1115 18.1746 15.2665 18.2706C15.2878 18.2813 15.3092 18.2973 15.3306 18.3079C15.5122 18.3986 15.6832 18.4412 15.8595 18.4412C16.303 18.4412 16.5808 18.164 16.6717 18.0733L17.719 17.0282C17.9006 16.8469 18.1892 16.6283 18.5258 16.6283C18.857 16.6283 19.1295 16.8362 19.2951 17.0175C19.3005 17.0228 19.3005 17.0228 19.3058 17.0282L22.2498 19.9661C22.8001 20.51 22.2552 21.6351 22.2552 21.6351Z" stroke="white" stroke-width="2" stroke-linecap="round" stroke-linejoin="round"/>
</svg>
