<svg width="48" height="48" viewBox="0 0 48 48" fill="none" xmlns="http://www.w3.org/2000/svg">
<rect width="48" height="48" rx="24" fill="#F37186"/>
<path d="M30.6357 26.8965L30.627 18.0723C30.627 17.457 30.2227 17.0352 29.5898 17.0352H20.7568C20.1592 17.0352 19.7461 17.4834 19.7461 18.0107C19.7461 18.5293 20.1943 18.96 20.7305 18.96H23.8857L27.6123 18.8369L26.0127 20.2432L17.6719 28.5928C17.4697 28.8037 17.3555 29.0498 17.3555 29.2959C17.3555 29.8145 17.8301 30.3066 18.3662 30.3066C18.6123 30.3066 18.8584 30.2012 19.0693 29.999L27.4189 21.6494L28.8428 20.0498L28.6934 23.6182V26.9229C28.6934 27.4678 29.124 27.9248 29.6602 27.9248C30.1875 27.9248 30.6357 27.4766 30.6357 26.8965Z" fill="white"/>
</svg>
