<svg width="92" height="92" viewBox="0 0 92 92" fill="none" xmlns="http://www.w3.org/2000/svg">
<circle cx="46" cy="46" r="46" fill="#FCF6FF"/>
<circle cx="46" cy="46" r="35" fill="#E3C0FF"/>
<path d="M60 50C62.98 47.08 66 43.58 66 39C66 36.0826 64.8411 33.2847 62.7782 31.2218C60.7153 29.1589 57.9174 28 55 28C51.48 28 49 29 46 32C43 29 40.52 28 37 28C34.0826 28 31.2847 29.1589 29.2218 31.2218C27.1589 33.2847 26 36.0826 26 39C26 43.6 29 47.1 32 50L46 64L60 50Z" stroke="white" stroke-width="3" stroke-linecap="round" stroke-linejoin="round"/>
</svg>
