<svg width="92" height="92" viewBox="0 0 92 92" fill="none" xmlns="http://www.w3.org/2000/svg">
<circle cx="46" cy="46" r="46" fill="#ECFDF3"/>
<circle cx="46" cy="46" r="35" fill="#86CFAE"/>
<path d="M36.5 57.1068V56.9376M46.625 57.1068V56.9376M46.625 47.9376V47.7684M55.625 47.9376V47.7684M29.75 38.9375H61.25M33.8214 26V29.3754M56.75 26V29.375M56.75 29.375H34.25C30.5221 29.375 27.5 32.3971 27.5 36.125V58.6252C27.5 62.3531 30.5221 65.3752 34.25 65.3752H56.75C60.4779 65.3752 63.5 62.3531 63.5 58.6252L63.5 36.125C63.5 32.3971 60.4779 29.375 56.75 29.375Z" stroke="white" stroke-width="3" stroke-linecap="round" stroke-linejoin="round"/>
</svg>
