<svg width="92" height="92" viewBox="0 0 92 92" fill="none" xmlns="http://www.w3.org/2000/svg">
<circle cx="46" cy="46" r="46" fill="#FFF6F6"/>
<circle cx="46" cy="46" r="35" fill="#FFC0CA"/>
<path d="M52.7255 52.2228C53.5114 52.4848 54.3609 52.0601 54.6228 51.2741C54.8848 50.4882 54.4601 49.6387 53.6741 49.3768L52.7255 52.2228ZM45.9998 48.3998H44.4998C44.4998 49.0454 44.9129 49.6187 45.5255 49.8228L45.9998 48.3998ZM47.4998 38.3643C47.4998 37.5359 46.8282 36.8643 45.9998 36.8643C45.1714 36.8643 44.4998 37.5359 44.4998 38.3643H47.4998ZM53.6741 49.3768L46.4741 46.9768L45.5255 49.8228L52.7255 52.2228L53.6741 49.3768ZM47.4998 48.3998V38.3643H44.4998V48.3998H47.4998ZM63.6998 45.9998C63.6998 55.7752 55.7752 63.6998 45.9998 63.6998V66.6998C57.4321 66.6998 66.6998 57.4321 66.6998 45.9998H63.6998ZM45.9998 63.6998C36.2244 63.6998 28.2998 55.7752 28.2998 45.9998H25.2998C25.2998 57.4321 34.5675 66.6998 45.9998 66.6998V63.6998ZM28.2998 45.9998C28.2998 36.2244 36.2244 28.2998 45.9998 28.2998V25.2998C34.5675 25.2998 25.2998 34.5675 25.2998 45.9998H28.2998ZM45.9998 28.2998C55.7752 28.2998 63.6998 36.2244 63.6998 45.9998H66.6998C66.6998 34.5675 57.4321 25.2998 45.9998 25.2998V28.2998Z" fill="white"/>
</svg>
